<svg xmlns="http://www.w3.org/2000/svg" width="512" height="512" viewBox="0 0 32 32">
  <defs><radialGradient id="g" cx="28%" cy="20%" r="90%"><stop stop-color="#33494D"/><stop offset=".55" stop-color="#171E24"/><stop offset="1" stop-color="#0A0C0F"/></radialGradient></defs>
  <rect width="32" height="32" rx="7.3" fill="url(#g)"/>
  <g stroke="#BFD8D0" stroke-width="1.35" stroke-linecap="round" stroke-linejoin="round">
    <path d="M10.2 16c-.45.8-.65 1.7-.65 2.7 0 4.2 2.3 6.4 6.45 6.4s6.45-2.2 6.45-6.4c0-1-.2-1.9-.65-2.7M10.4 13.8c-1.8 1.7-5.3 1.8-7.1-.2-1.9-2.2-.7-5.2 2-6.8 2.4-1.4 4.9-.8 6.7.6 1.1-.7 2.4-1.1 4-1.1s2.9.4 4 1.1c1.8-1.4 4.3-2 6.7-.6 2.7 1.6 3.9 4.6 2 6.8-1.8 2-5.3 1.9-7.1.2" fill="none"/>
    <path d="m11.1 14.8 2-.5m7.8.5-2-.5M15.8 22.4c.4-.35.8-.35 1.2 0" fill="none"/>
    <ellipse cx="12.6" cy="17.5" rx="1.25" ry="1.75" fill="#BFD8D0" stroke="none"/><ellipse cx="19.4" cy="17.5" rx="1.25" ry="1.75" fill="#BFD8D0" stroke="none"/>
    <path d="M11.55 16.75c.55-.55 1.55-.55 2.1 0m4.7 0c.55-.55 1.55-.55 2.1 0" fill="none" stroke="#10161B" stroke-width=".7"/>
    <circle cx="16" cy="20.5" r=".65" fill="#BFD8D0" stroke="none"/>
  </g>
</svg>
